<svg width="532" height="507" viewBox="0 0 532 507" fill="none" xmlns="http://www.w3.org/2000/svg">
<path d="M349.58 83.0474C378.886 112.973 401.118 143.621 434.13 177.152C467.478 210.684 510.932 246.739 526.091 292.169C540.912 337.239 527.101 392.043 493.079 423.411C459.057 455.14 404.487 463.794 360.359 470.644C316.232 477.855 282.209 483.264 243.135 492.999C203.723 502.373 159.595 515.714 130.626 499.128C101.656 482.903 88.1824 436.391 64.6027 395.288C41.023 354.185 7.0009 318.49 0.937558 279.189C-4.78894 239.528 16.7696 196.622 36.9808 148.668C56.8551 101.075 75.382 48.4341 110.078 22.1136C145.11 -4.56748 196.649 -4.92804 240.44 9.49417C284.231 23.5558 320.274 53.1213 349.58 83.0474Z" fill="url(#paint0_linear_3:6)"/>
<defs>
<linearGradient id="paint0_linear_3:6" x1="77.5" y1="-5.1775e-06" x2="430.5" y2="513.5" gradientUnits="userSpaceOnUse">
<stop stop-color="#ECBD2D"/>
<stop offset="1" stop-color="#ECBD2D" stop-opacity="0"/>
</linearGradient>
</defs>
</svg>
