<?xml version="1.0" standalone="no"?>
<svg viewBox="0 0 200 200" xmlns="http://www.w3.org/2000/svg">
  <path fill="#ECBD2D" d="M30.1,-55.4C38.8,-47.1,45.4,-38.6,55.2,-29.3C65.1,-20,78,-10,82.5,2.6C86.9,15.1,82.8,30.3,72.7,39C62.6,47.8,46.4,50.2,33.3,52.1C20.2,54.1,10.1,55.6,-1.5,58.3C-13.2,60.9,-26.3,64.6,-34.9,60C-43.5,55.5,-47.5,42.6,-54.5,31.2C-61.5,19.8,-71.6,9.9,-73.4,-1C-75.1,-12,-68.7,-23.9,-62.7,-37.2C-56.8,-50.4,-51.3,-65,-41,-72.3C-30.6,-79.7,-15.3,-79.8,-2.3,-75.8C10.7,-71.9,21.4,-63.7,30.1,-55.4Z" transform="translate(100 100)" />
</svg>
